<?xml version="1.0" standalone="no"?>
<!DOCTYPE svg PUBLIC "-//W3C//DTD SVG 20010904//EN"
 "http://www.w3.org/TR/2001/REC-SVG-20010904/DTD/svg10.dtd">
<svg version="1.0" xmlns="http://www.w3.org/2000/svg"
 width="2000.000000pt" height="2000.000000pt" viewBox="0 0 2000.000000 2000.000000"
 preserveAspectRatio="xMidYMid meet">

<g transform="translate(0.000000,2000.000000) scale(0.100000,-0.100000)"
fill="#000000" stroke="none">
<path d="M14218 13643 c7 -3 16 -2 19 1 4 3 -2 6 -13 5 -11 0 -14 -3 -6 -6z"/>
<path d="M12390 13456 c0 -2 7 -7 16 -10 8 -3 12 -2 9 4 -6 10 -25 14 -25 6z"/>
<path d="M8089 13233 c-13 -16 -12 -17 4 -4 16 13 21 21 13 21 -2 0 -10 -8
-17 -17z"/>
<path d="M9205 13220 c-3 -6 1 -7 9 -4 18 7 21 14 7 14 -6 0 -13 -4 -16 -10z"/>
<path d="M13118 12747 c-30 -62 -86 -262 -219 -779 -11 -45 18 -40 -459 -68
-190 -11 -427 -25 -528 -32 -109 -7 -186 -7 -191 -2 -4 5 -52 119 -106 254
-54 135 -105 263 -115 285 -9 22 -39 96 -66 164 -27 68 -54 125 -60 128 -10 4
-64 -16 -187 -70 -15 -7 -25 -16 -23 -22 23 -58 267 -659 292 -720 31 -76 32
-81 15 -93 -17 -11 -18 -30 -13 -260 6 -344 -11 -460 -98 -634 -49 -99 -105
-176 -225 -311 -165 -187 -172 -205 -185 -497 -20 -442 -29 -697 -35 -985 -3
-165 -8 -359 -11 -431 l-6 -130 69 -31 c94 -43 214 -79 357 -107 188 -38 295
-47 505 -47 198 1 249 4 357 22 l61 11 10 56 c46 243 203 353 334 235 56 -51
99 -142 124 -265 l5 -28 163 0 c470 0 774 74 1055 256 95 62 89 40 67 255 -8
79 -19 209 -25 289 -17 236 -68 575 -169 1133 l-39 218 -84 87 c-190 199 -341
421 -428 631 -52 127 -61 174 -70 386 -8 186 -21 275 -42 275 -4 0 -8 8 -8 19
0 26 84 307 171 570 40 121 70 223 67 227 -6 5 -214 64 -228 64 -3 0 -17 -24
-32 -53z m-690 -1311 c37 -34 81 -114 133 -239 l23 -58 61 8 c33 4 114 8 180
8 103 -1 126 -4 161 -22 84 -45 78 -112 -19 -199 -43 -38 -190 -137 -220 -147
-5 -1 9 -41 32 -89 40 -83 70 -191 71 -254 0 -46 -26 -124 -47 -140 -22 -17
-83 -18 -120 -2 -50 22 -187 115 -246 169 l-58 52 -17 -24 c-56 -81 -194 -181
-273 -198 -63 -14 -94 -1 -123 49 -30 50 -29 193 2 267 l21 52 -62 34 c-110
61 -180 109 -238 166 -69 67 -81 102 -49 136 36 39 200 75 407 91 l92 7 27 81
c35 107 99 230 136 261 42 35 80 32 126 -9z"/>
<path d="M7606 11360 c-55 -17 -115 -98 -116 -158 0 -12 -6 -25 -14 -28 -15
-6 -312 11 -398 22 l-48 7 0 -115 0 -115 48 -6 c26 -3 110 -11 187 -17 217
-18 239 -22 243 -45 2 -11 18 -39 36 -62 45 -59 112 -82 193 -64 141 32 224
79 269 157 l26 43 21 -19 c27 -26 112 -27 147 -3 16 11 25 13 28 5 9 -27 67
-90 110 -118 76 -50 138 -69 224 -69 70 0 79 2 113 30 20 17 46 48 58 70 12
22 26 43 30 46 4 3 83 11 175 18 92 6 191 15 220 18 l52 6 0 114 0 115 -68 -7
c-103 -10 -353 -21 -362 -15 -4 3 -13 23 -20 45 -32 103 -88 148 -182 148 -91
-1 -185 -51 -295 -157 l-53 -50 -29 17 c-37 21 -114 22 -150 1 -27 -16 -27
-15 -88 43 -130 123 -254 173 -357 143z"/>
<path d="M7396 7083 c-6 -14 -5 -15 5 -6 7 7 10 15 7 18 -3 3 -9 -2 -12 -12z"/>
</g>
</svg>
